<svg width="40" height="40" viewBox="0 0 40 40" fill="none" xmlns="http://www.w3.org/2000/svg">
  <path d="M20 0C12.1562 0 5.71429 6.44196 5.71429 14.2857C5.71429 16.7723 6.39732 19.1518 7.69196 21.1607L19.2188 39.6429C19.3973 39.9107 19.6875 40.0268 20 40.0268C20.3125 40.0268 20.6027 39.9107 20.7812 39.6429L32.3214 21.1339C33.6027 19.1518 34.2857 16.7723 34.2857 14.2857C34.2857 6.44196 27.8438 0 20 0ZM20 21.4286C16.0714 21.4286 12.8571 18.2143 12.8571 14.2857C12.8571 10.3571 16.0714 7.14286 20 7.14286C23.9286 7.14286 27.1429 10.3571 27.1429 14.2857C27.1429 18.2143 23.9286 21.4286 20 21.4286Z" fill="#F97316"/>
  <circle cx="20" cy="14" r="8" fill="white"/>
  <circle cx="20" cy="14" r="6" fill="#F97316"/>
</svg> 